# Blender v2.93.4 OBJ File: ''
# www.blender.org
mtllib asteroid.mtl
o asteroid
v -2.061562 -1.697395 -0.138122
v -1.148328 -2.287068 -0.125625
v -1.522461 -1.348171 1.274040
v -1.999668 -1.287870 -0.726033
v -0.383288 -1.937340 1.584602
v -2.146939 -1.204925 0.741649
v -2.281044 -1.318482 0.336821
v -0.866533 -2.016846 -0.726033
v -0.708778 -2.211922 -0.596877
v 0.020954 -2.799331 0.379425
v -1.256266 -0.546145 1.414267
v -1.553072 -0.716229 1.310020
v -2.318952 0.038915 -0.726033
v -2.495828 -0.359456 0.274256
v -1.095659 0.418332 -0.726033
v 0.044520 -1.451999 1.752002
v 0.169315 -2.604590 0.966582
v -2.308636 -0.537758 0.666420
v 0.671934 -1.132882 -0.726033
v -0.359470 0.025161 -0.726033
v 0.080919 -2.575321 -0.212596
v 0.120169 -2.782138 0.544476
v -1.363700 0.087055 0.946454
v -1.098259 0.470833 0.567373
v 0.713783 -0.488360 0.799434
v -2.531723 0.081688 0.012002
v -1.989855 0.300917 0.372213
v -2.464881 0.121860 0.147783
v -2.396361 -0.392332 0.514452
v -1.237395 0.539101 0.412553
v 0.768800 -1.426335 1.522456
v 1.065944 -1.830409 1.160987
v 0.758150 -0.515366 0.715064
v 1.103013 -1.881987 -0.184584
v 1.369964 -1.856156 0.348646
v 1.377595 -1.838964 0.382612
vt 0.683726 0.346422
vt 0.648432 0.205416
vt 0.872572 0.260606
vt 0.038658 0.345017
vt 0.000000 0.207514
vt 0.045426 0.156473
vt 0.872572 0.084171
vt 0.818519 0.357992
vt 0.638102 0.382223
vt 0.763544 0.379431
vt 0.093707 0.326383
vt 0.091485 0.362793
vt 0.676237 0.023976
vt 0.596074 0.173992
vt 0.072107 0.741639
vt 0.071572 0.585441
vt 0.178738 0.734069
vt 0.142116 0.764807
vt 0.059265 0.852271
vt 0.718416 0.498277
vt 0.814105 0.463440
vt 0.131478 0.000000
vt 0.287256 0.070471
vt 0.151648 0.548545
vt 0.704452 0.502168
vt 0.789512 0.522684
vt 0.785023 0.605751
vt 0.757845 0.000000
vt 0.849925 0.418849
vt 0.127160 0.898806
vt 0.325773 0.375616
vt 0.325773 0.173070
vt 0.618959 0.049054
vt 0.136119 0.478184
vt 0.696836 0.008356
vt 0.805692 0.661777
vt 0.818220 0.683552
vt 0.795758 0.763184
vt 0.254425 0.808572
vt 0.323694 0.830980
vt 0.325773 0.604613
vt 0.809400 0.502168
vt 0.456784 0.000000
vt 0.593460 0.067093
vt 0.431494 0.109686
vt 0.557646 0.006097
vt 0.573992 0.016758
vt 0.840661 0.442438
vt 0.203788 0.983325
vt 0.197668 1.000000
vt 0.143743 0.957328
vt 0.141390 0.925743
vt 0.395795 0.215150
vt 0.596074 0.162289
vt 0.583138 0.136010
vt 0.206287 0.501421
vt 0.625264 0.534804
vt 0.626538 0.583299
vt 0.250476 0.925640
vt 0.325773 0.401450
vt 0.524812 0.434318
vt 0.355911 0.519679
vt 0.299583 0.501421
vt 0.537691 0.431419
vt 0.630716 0.763184
vt 0.598363 0.692650
vt 0.325773 0.860143
vt 0.596074 0.528406
vt 0.528090 0.570838
vt 0.420225 0.571628
vt 0.596074 0.688156
vt 0.415619 0.570409
vn -0.5046 -0.7733 0.3839
vn -0.4487 -0.7137 -0.5378
vn -0.4507 -0.7095 -0.5417
vn -0.4566 -0.7106 -0.5353
vn -0.9400 -0.2261 -0.2557
vn -0.9404 -0.2246 -0.2554
vn -0.9403 -0.2250 -0.2553
vn -0.5043 -0.7734 0.3840
vn -0.4496 -0.7159 -0.5342
vn -0.4494 -0.7166 -0.5334
vn -0.2370 -0.9005 -0.3647
vn -0.2369 -0.9005 -0.3647
vn -0.2370 -0.9005 -0.3646
vn -0.2953 -0.0686 0.9529
vn -0.2952 -0.0686 0.9530
vn -0.2954 -0.0686 0.9529
vn -0.6568 -0.0746 0.7504
vn -0.6568 -0.0745 0.7504
vn -0.9389 -0.2288 -0.2570
vn -0.9391 -0.2289 -0.2564
vn 0.0000 0.0000 -1.0000
vn -0.2952 -0.0685 0.9530
vn 0.2747 -0.5210 0.8082
vn 0.2748 -0.5210 0.8081
vn -0.5049 -0.7732 0.3838
vn -0.9170 -0.1822 0.3549
vn -0.9170 -0.1823 0.3548
vn 0.2303 -0.4008 -0.8867
vn 0.2389 -0.4110 -0.8797
vn -0.5048 -0.7731 0.3840
vn 0.5520 -0.7982 -0.2410
vn 0.5485 -0.7990 -0.2466
vn 0.5487 -0.7988 -0.2467
vn -0.5146 0.4513 0.7291
vn -0.5144 0.4514 0.7292
vn -0.5145 0.4513 0.7291
vn 0.2214 0.6035 0.7660
vn -0.9387 -0.2294 -0.2573
vn -0.2905 0.9468 -0.1383
vn -0.2924 0.9463 -0.1376
vn -0.2922 0.9465 -0.1370
vn -0.2891 0.9473 -0.1382
vn -0.2896 0.9471 -0.1383
vn -0.9171 -0.1821 0.3548
vn -0.9036 0.1622 0.3964
vn -0.9035 0.1623 0.3967
vn -0.9036 0.1623 0.3965
vn -0.9038 0.1618 0.3963
vn 0.4709 0.8815 -0.0347
vn 0.4708 0.8815 -0.0348
vn 0.4710 0.8814 -0.0348
vn 0.4712 0.8813 -0.0348
vn -0.2923 0.9465 -0.1368
vn 0.2746 -0.5210 0.8082
vn 0.6014 -0.7591 0.2492
vn 0.6014 -0.7591 0.2493
vn -0.5146 0.4513 0.7290
vn 0.7092 0.6317 -0.3131
vn 0.9054 0.3679 -0.2118
vn 0.3150 -0.4302 -0.8460
vn 0.4712 0.8814 -0.0348
vn 0.4711 0.8814 -0.0348
vn 0.5495 -0.7987 -0.2452
vn 0.5537 -0.7978 -0.2386
vn 0.6014 -0.7591 0.2491
vn -0.2734 0.7650 0.5831
vn 0.8785 0.3244 0.3507
vn 0.8761 0.3256 0.3557
vn 0.8759 0.3257 0.3559
vn 0.8761 0.3259 0.3553
vn 0.8795 0.3240 0.3486
vn 0.7804 0.4691 -0.4134
vn 0.7803 0.4693 -0.4134
usemtl Steel_-_Satin
s 1
f 1/1/1 2/2/1 3/3/1
f 2/4/2 1/5/3 4/6/4
f 5/7/1 3/3/1 2/2/1
f 3/3/1 6/8/1 1/1/1
f 4/9/5 1/1/6 7/10/7
f 6/8/1 7/10/8 1/1/1
f 4/6/4 8/11/9 2/4/2
f 8/11/9 9/12/10 2/4/2
f 2/2/1 10/13/1 5/7/1
f 9/14/11 10/13/12 2/2/13
f 3/15/14 5/16/15 11/17/14
f 11/17/14 12/18/16 3/15/14
f 6/19/17 3/15/18 12/18/17
f 13/20/19 4/9/5 14/21/20
f 4/6/21 13/22/21 15/23/21
f 7/10/7 14/21/20 4/9/5
f 8/11/21 4/6/21 15/23/21
f 5/16/15 16/24/22 11/17/14
f 16/25/23 5/26/24 17/27/23
f 17/28/25 5/7/1 10/13/1
f 6/8/26 18/29/26 7/10/26
f 6/19/17 12/18/17 18/30/17
f 7/10/26 18/29/26 14/21/27
f 9/12/28 8/11/28 19/31/28
f 20/32/21 19/31/21 8/11/21
f 15/23/21 20/32/21 8/11/21
f 9/14/11 21/33/12 10/13/12
f 21/34/29 9/12/29 19/31/29
f 17/28/25 10/13/1 22/35/30
f 22/36/31 10/37/32 21/38/33
f 12/18/34 11/17/35 23/39/36
f 23/39/37 11/17/37 24/40/37
f 25/41/37 24/40/37 11/17/37
f 11/17/37 16/24/37 25/41/37
f 18/30/36 12/18/34 23/39/36
f 26/42/38 13/20/19 14/21/20
f 13/43/39 27/44/40 15/45/41
f 13/43/39 26/46/42 28/47/43
f 28/47/43 27/44/40 13/43/39
f 18/29/26 29/48/44 14/21/27
f 28/49/45 26/50/46 14/51/47
f 28/49/45 14/51/47 29/52/48
f 20/53/49 15/45/50 24/54/51
f 15/45/50 30/55/52 24/54/51
f 27/44/40 30/55/53 15/45/41
f 16/24/37 31/56/37 25/41/37
f 31/57/54 16/25/23 17/27/23
f 32/58/55 17/27/56 22/36/55
f 32/58/54 31/57/54 17/27/23
f 23/39/36 27/59/36 18/30/36
f 18/30/36 27/59/36 29/52/57
f 19/60/58 20/53/58 33/61/58
f 34/62/59 19/60/59 33/61/59
f 34/63/60 21/34/60 19/31/60
f 25/64/61 33/61/62 20/53/49
f 24/54/51 25/64/61 20/53/49
f 22/36/31 21/38/33 34/65/63
f 34/65/63 35/66/64 22/36/31
f 32/58/55 22/36/55 35/66/65
f 30/67/66 27/59/66 23/39/66
f 30/67/66 23/39/66 24/40/66
f 33/61/67 25/64/68 31/68/69
f 27/59/36 28/49/34 29/52/57
f 33/61/67 31/68/69 32/69/70
f 32/69/70 36/70/71 33/61/67
f 35/66/65 36/71/65 32/58/55
f 33/61/72 36/70/73 34/62/72
f 36/70/73 35/72/72 34/62/72
